<?xml version="1.0" encoding="UTF-8" standalone="no"?>
<!DOCTYPE svg PUBLIC "-//W3C//DTD SVG 1.1//EN" "http://www.w3.org/Graphics/SVG/1.1/DTD/svg11.dtd">
<!-- Created with Vectornator (http://vectornator.io/) -->
<svg height="180.00000000000006px" stroke-miterlimit="10" style="fill-rule:nonzero;clip-rule:evenodd;stroke-linecap:round;stroke-linejoin:round;" version="1.1" viewBox="0 0 180 180" width="180.0px" xml:space="preserve" xmlns="http://www.w3.org/2000/svg" xmlns:xlink="http://www.w3.org/1999/xlink">
<defs/>
<g id="Layer-1">
<path d="M90.1307 179.597C105.126 179.597 132.882 149.761 154.857 98.573C177.576 45.6551 173.042 0.549718 90.1307 0.532691C6.95781 0.515611 2.46573 45.6518 25.0723 98.573C46.9383 149.761 74.9633 179.597 90.1307 179.597Z" fill="#b4321e" fill-rule="nonzero" opacity="1" stroke="none"/>
</g>
<g id="Layer-2">
<text fill="#000000" font-family="ArialRoundedMTBold" font-size="128" opacity="1" stroke="none" text-anchor="middle" transform="matrix(1 0 0 1 33.5075 14.8387)" x="0" y="0">
<tspan textLength="92.0625" x="56.495" y="121">A</tspan>
</text>
<g opacity="1">
<path d="M38.1584 18.5919L141.847 18.5919C146.084 18.5919 149.519 21.6513 149.519 25.4253L149.519 25.4253C149.519 29.1992 146.084 32.2587 141.847 32.2587L38.1584 32.2587C33.9212 32.2587 30.4863 29.1992 30.4863 25.4253L30.4863 25.4253C30.4863 21.6513 33.9212 18.5919 38.1584 18.5919Z" fill="#000000" fill-rule="nonzero" stroke="none"/>
<path d="M38.1562 18.3125C32.5622 20.3812 34.1121 19.026 32.5625 20.4062C29.9487 22.7345 29.4607 26.5935 31.5938 29.4062C32.0777 30.0444 32.6526 30.6091 33.3125 31.0625C34.1399 31.631 35.0875 32.0435 36.0625 32.2812C37.6552 32.6696 39.3152 32.5313 40.9375 32.5312C42.7939 32.5312 44.6436 32.5313 46.5 32.5312C52.4911 32.5311 58.5089 32.5314 64.5 32.5312C84.1311 32.5308 103.744 32.5332 123.375 32.5312C125.55 32.531 127.731 32.5315 129.906 32.5312C131.322 32.5311 132.74 32.5314 134.156 32.5312C135.663 32.5311 137.15 32.5314 138.656 32.5312C140.231 32.5311 141.877 32.6592 143.438 32.375C146 31.9082 148.378 30.219 149.344 27.75C149.575 27.1591 149.703 26.5391 149.75 25.9062C149.822 24.9481 149.694 23.9887 149.344 23.0938C149.057 22.3605 148.64 21.6884 148.125 21.0938C145.127 17.6325 140.382 18.3433 136.281 18.3438C135.353 18.3438 134.428 18.3437 133.5 18.3438C132.108 18.3439 130.705 18.3436 129.312 18.3438C127.457 18.3439 129.25 18.34 38.1875 18.3438C38.1797 18.3426 38.1642 18.3442 38.1562 18.3438C38.1483 18.3433 38.1644 18.3123 38.1562 18.3125ZM140.75 18.7812C141.789 18.7799 142.821 18.8521 143.812 19.0938C146.931 19.8541 149.49 22.6181 149.25 25.875C149.196 26.6024 149 27.3105 148.688 27.9688C147.619 30.219 145.273 31.6425 142.844 31.9375C141.466 32.1049 140.04 32.0001 138.656 32C137.641 31.9999 136.64 32.0001 135.625 32C134.652 31.9999 133.692 32.0001 132.719 32C131.332 31.9999 129.95 32.0001 128.562 32C126.43 31.9998 124.288 32.0002 122.156 32C102.935 31.9981 83.7216 32.0004 64.5 32C58.5089 31.9999 52.4911 32.0001 46.5 32C44.1795 31.9999 41.883 32 39.5625 32C38.5922 32 37.6141 32.0181 36.6562 31.8438C31.7179 30.9447 36.65 31.8456 38.1562 18.8438C123.745 18.847 95.2226 18.8409 123.75 18.8438C125.606 18.8439 127.456 18.8436 129.312 18.8438C130.705 18.8439 132.108 18.8436 133.5 18.8438C134.892 18.8439 136.264 18.8436 137.656 18.8438C138.664 18.8438 139.711 18.7826 140.75 18.7812Z" fill="#000000" stroke="none"/>
</g>
</g>
</svg>
